<svg width="197" height="197" viewBox="0 0 197 197" fill="none" xmlns="http://www.w3.org/2000/svg">
<path d="M98.5001 14.775C98.5001 6.615 105.152 -0.113552 113.22 1.1059C131.32 3.84143 148.404 11.5857 162.471 23.6C180.305 38.8316 192.119 59.9268 195.787 83.0912C199.456 106.256 194.739 129.969 182.485 149.966C170.231 169.963 151.244 184.932 128.938 192.179C106.633 199.426 82.4737 198.477 60.8058 189.502C39.1379 180.527 21.3835 164.115 10.736 143.218C0.0884714 122.321 -2.75334 98.3107 2.7217 75.5056C7.04028 57.5175 16.3098 41.2104 29.3445 28.3588C35.1551 22.6298 44.4915 24.1634 49.2878 30.765V30.765C54.0842 37.3666 52.4675 46.5219 47.037 52.6125C39.5145 61.0493 34.1292 71.2663 31.4552 82.4039C27.6227 98.3675 29.612 115.175 37.0652 129.803C44.5185 144.43 56.9466 155.919 72.1141 162.201C87.2816 168.484 104.193 169.149 119.807 164.075C135.421 159.002 148.712 148.524 157.29 134.526C165.868 120.528 169.169 103.929 166.601 87.7139C164.033 71.4988 155.763 56.7321 143.28 46.07C134.57 38.6311 124.208 33.5308 113.163 31.127C105.189 29.3916 98.5001 22.935 98.5001 14.775V14.775Z" fill="url(#paint0_linear_201_104)"/>
<defs>
<linearGradient id="paint0_linear_201_104" x1="-1.24156e-06" y1="82" x2="154" y2="178" gradientUnits="userSpaceOnUse">
<stop stop-color="#DF9780"/>
<stop offset="1" stop-color="#A66DE9"/>
</linearGradient>
</defs>
</svg>
